<?xml version="1.0" encoding="utf-8"?>
<!-- Generator: Adobe Illustrator 23.0.3, SVG Export Plug-In . SVG Version: 6.00 Build 0)  -->
<svg version="1.1" id="Layer_1" xmlns="http://www.w3.org/2000/svg" xmlns:xlink="http://www.w3.org/1999/xlink" x="0px" y="0px"
	 viewBox="0 0 512 512" style="enable-background:new 0 0 512 512;" xml:space="preserve">
<style type="text/css">
	.st0{fill:none;}
	.st1{fill:none;stroke:#FFFFFF;stroke-width:11;stroke-miterlimit:10;}
	.st2{fill:none;stroke:#FFFFFF;stroke-width:8;stroke-miterlimit:10;}
	.st3{fill:#FFFFFF;}
</style>
<path class="st0" d="M0,0h512v512H0V0z"/>
<path class="st1" d="M392.1,329.2c0,75-60.9,135.8-136,135.5c-74.9-0.3-135.1-62.1-135.1-137V138.2c0-21.7,17.6-39.3,39.3-39.3h96.2
	h96.2c21.7,0,39.3,17.6,39.3,39.3v191H392.1z"/>
<line class="st2" x1="121" y1="230.5" x2="392.1" y2="230.5"/>
<path class="st2" d="M259.4,208.1h-5.7c-6.6,0-12-5.4-12-12l0-58.7c0-6.6,5.4-12,12-12h5.7c6.6,0,12,5.4,12,12l0,58.7
	C271.4,202.7,266,208.1,259.4,208.1z"/>
<line class="st2" x1="256.5" y1="208.2" x2="256.5" y2="230.5"/>
<g>
	<g>
		<path class="st3" d="M222,331.3c-1.4,0-2.5-0.3-3.3-0.9c-0.8-0.6-1.2-1.5-1.4-2.7c0-0.4,0-0.6,0.2-0.8s0.5-0.3,0.8-0.3
			c0.4,0,0.6,0.1,0.8,0.3s0.3,0.4,0.3,0.8c0.1,0.6,0.4,1,0.7,1.2c0.4,0.2,1,0.3,1.8,0.3h5.6c1,0,1.7-0.2,2.1-0.5
			c0.4-0.4,0.5-1,0.5-2.1s-0.2-1.7-0.5-2.1c-0.4-0.4-1-0.5-2.1-0.5h-5.5c-1.5,0-2.7-0.4-3.4-1.1s-1.1-1.9-1.1-3.4
			c0-1.6,0.4-2.7,1.1-3.5c0.7-0.7,1.9-1.1,3.4-1.1h5.3c2.6,0,4.1,1.1,4.4,3.4c0.1,0.4,0,0.6-0.2,0.8s-0.5,0.3-0.8,0.3
			c-0.3,0-0.6-0.1-0.8-0.3s-0.3-0.4-0.4-0.8c-0.1-0.5-0.3-0.9-0.7-1.1c-0.3-0.2-0.9-0.3-1.6-0.3h-5.3c-0.9,0-1.6,0.2-1.9,0.5
			c-0.3,0.3-0.5,1-0.5,1.9c0,0.9,0.2,1.5,0.5,1.9c0.3,0.3,1,0.5,1.9,0.5h5.5c1.6,0,2.8,0.4,3.6,1.2s1.2,2,1.2,3.6s-0.4,2.8-1.2,3.6
			s-2,1.2-3.6,1.2H222z"/>
		<path class="st3" d="M244.7,331.4c-2.1,0-3.7-0.5-4.7-1.5c-1-1-1.5-2.6-1.5-4.7V317h-1.9c-0.7,0-1.1-0.4-1.1-1.1
			c0-0.7,0.4-1.1,1.1-1.1h1.9v-3.3c0-0.7,0.4-1.1,1.1-1.1c0.7,0,1.1,0.4,1.1,1.1v3.3h4.1c0.7,0,1.1,0.4,1.1,1.1
			c0,0.7-0.4,1.1-1.1,1.1h-4.1v8.1c0,1.5,0.3,2.6,0.9,3.2c0.6,0.6,1.6,0.9,3.2,0.9c0.4,0,0.6,0.1,0.8,0.3s0.3,0.4,0.3,0.8
			C245.8,331,245.5,331.4,244.7,331.4z"/>
		<path class="st3" d="M252.4,324v1.1c0,1.6,0.3,2.6,0.9,3.2s1.7,0.9,3.3,0.9h2.8c1.3,0,2.3-0.2,2.9-0.5s1-0.9,1.1-1.6
			c0.1-0.3,0.2-0.6,0.4-0.8s0.4-0.3,0.8-0.3c0.4,0,0.6,0.1,0.8,0.3c0.2,0.2,0.3,0.5,0.2,0.8c-0.2,1.4-0.8,2.5-1.8,3.2
			c-1,0.7-2.5,1-4.4,1h-2.8c-2.2,0-3.8-0.5-4.8-1.5s-1.5-2.6-1.5-4.7v-3.9c0-2.2,0.5-3.8,1.5-4.8s2.6-1.5,4.8-1.5h2.8
			c2.2,0,3.8,0.5,4.8,1.5c1,1,1.5,2.6,1.5,4.8v1.7c0,0.7-0.4,1.1-1.1,1.1H252.4z M256.5,317c-1.6,0-2.7,0.3-3.3,0.9
			s-0.9,1.7-0.9,3.3v0.6h11.1v-0.6c0-1.6-0.3-2.7-0.9-3.3c-0.6-0.6-1.7-0.9-3.3-0.9H256.5z"/>
		<path class="st3" d="M273.2,324v1.1c0,1.6,0.3,2.6,0.9,3.2s1.7,0.9,3.3,0.9h2.8c1.3,0,2.3-0.2,2.9-0.5s1-0.9,1.1-1.6
			c0.1-0.3,0.2-0.6,0.4-0.8s0.4-0.3,0.8-0.3c0.4,0,0.6,0.1,0.8,0.3c0.2,0.2,0.3,0.5,0.2,0.8c-0.2,1.4-0.8,2.5-1.8,3.2
			c-1,0.7-2.5,1-4.4,1h-2.8c-2.2,0-3.8-0.5-4.8-1.5s-1.5-2.6-1.5-4.7v-3.9c0-2.2,0.5-3.8,1.5-4.8s2.6-1.5,4.8-1.5h2.8
			c2.2,0,3.8,0.5,4.8,1.5c1,1,1.5,2.6,1.5,4.8v1.7c0,0.7-0.4,1.1-1.1,1.1H273.2z M277.4,317c-1.6,0-2.7,0.3-3.3,0.9
			s-0.9,1.7-0.9,3.3v0.6h11.1v-0.6c0-1.6-0.3-2.7-0.9-3.3c-0.6-0.6-1.7-0.9-3.3-0.9H277.4z"/>
		<path class="st3" d="M293.6,331.4c-0.7,0-1.1-0.4-1.1-1.1V316c0-0.7,0.4-1.1,1.1-1.1c0.7,0,1.1,0.4,1.1,1.1v2.2
			c0.6-1.1,1.5-1.9,2.6-2.4c1.1-0.6,2.4-0.8,3.8-0.8c0.7,0,1.1,0.4,1.1,1.1c0,0.7-0.4,1.1-1.1,1.1c-2,0-3.5,0.4-4.6,1.3
			c-1.1,0.9-1.7,2-1.8,3.6v8.4C294.6,331,294.3,331.4,293.6,331.4z"/>
	</g>
</g>
<g>
	<g>
		<path class="st3" d="M150.4,161.6c-0.5,0-0.7-0.2-0.7-0.7V147c0-0.5,0.2-0.7,0.7-0.7c0.5,0,0.7,0.2,0.7,0.7v5.4
			c0.3-0.5,0.8-0.8,1.4-1.1c0.6-0.2,1.3-0.4,2.2-0.4h0.8c1.4,0,2.4,0.3,3.1,1c0.7,0.7,1,1.7,1,3.1v2.5c0,1.4-0.3,2.4-1,3.1
			c-0.7,0.7-1.7,1-3.1,1h-0.8c-0.9,0-1.6-0.1-2.2-0.4c-0.6-0.2-1.1-0.6-1.4-1.1v0.7C151.1,161.4,150.9,161.6,150.4,161.6z
			 M154.7,160.2h0.8c1,0,1.7-0.2,2.1-0.6c0.4-0.4,0.6-1.1,0.6-2.1v-2.5c0-1-0.2-1.7-0.6-2.1c-0.4-0.4-1.1-0.6-2.1-0.6h-0.8
			c-1.1,0-1.9,0.2-2.6,0.5s-1,0.8-1,1.5v4c0,0.6,0.4,1.1,1,1.4S153.7,160.2,154.7,160.2z"/>
		<path class="st3" d="M167.2,161.6c-1.4,0-2.4-0.3-3.1-1c-0.7-0.7-1-1.7-1-3.1v-2.5c0-1.4,0.3-2.4,1-3.1c0.7-0.7,1.7-1,3.1-1h1.8
			c1.4,0,2.4,0.3,3.1,1c0.7,0.7,1,1.7,1,3.1v2.5c0,1.4-0.3,2.4-1,3.1c-0.7,0.7-1.7,1-3.1,1H167.2z M164.5,157.6c0,1,0.2,1.7,0.6,2.1
			c0.4,0.4,1.1,0.6,2.1,0.6h1.8c1,0,1.7-0.2,2.1-0.6c0.4-0.4,0.6-1.1,0.6-2.1v-2.5c0-1-0.2-1.7-0.6-2.1s-1.1-0.6-2.1-0.6h-1.8
			c-0.7,0-1.2,0.1-1.6,0.2c-0.4,0.2-0.7,0.4-0.8,0.8c-0.2,0.4-0.3,0.9-0.3,1.6V157.6z"/>
		<path class="st3" d="M180.6,161.6c-1.4,0-2.4-0.3-3.1-1c-0.7-0.7-1-1.7-1-3.1v-2.5c0-1.4,0.3-2.4,1-3.1c0.7-0.7,1.7-1,3.1-1h1.8
			c1.4,0,2.4,0.3,3.1,1c0.7,0.7,1,1.7,1,3.1v2.5c0,1.4-0.3,2.4-1,3.1c-0.7,0.7-1.7,1-3.1,1H180.6z M177.9,157.6c0,1,0.2,1.7,0.6,2.1
			c0.4,0.4,1.1,0.6,2.1,0.6h1.8c1,0,1.7-0.2,2.1-0.6c0.4-0.4,0.6-1.1,0.6-2.1v-2.5c0-1-0.2-1.7-0.6-2.1s-1.1-0.6-2.1-0.6h-1.8
			c-0.7,0-1.2,0.1-1.6,0.2c-0.4,0.2-0.7,0.4-0.8,0.8c-0.2,0.4-0.3,0.9-0.3,1.6V157.6z"/>
		<path class="st3" d="M192.7,161.6c-0.9,0-1.6-0.2-2.1-0.6c-0.5-0.4-0.8-1-0.9-1.7c0-0.2,0-0.4,0.1-0.5c0.1-0.1,0.3-0.2,0.5-0.2
			s0.4,0.1,0.5,0.2c0.1,0.1,0.2,0.3,0.2,0.5c0.1,0.4,0.2,0.6,0.5,0.8s0.6,0.2,1.1,0.2h3.6c0.6,0,1.1-0.1,1.3-0.4
			c0.2-0.2,0.4-0.7,0.4-1.3s-0.1-1.1-0.4-1.3c-0.2-0.2-0.7-0.4-1.3-0.4h-3.5c-1,0-1.7-0.2-2.2-0.7c-0.5-0.5-0.7-1.2-0.7-2.2
			c0-1,0.2-1.7,0.7-2.2c0.5-0.5,1.2-0.7,2.2-0.7h3.4c1.7,0,2.6,0.7,2.8,2.2c0,0.2,0,0.4-0.1,0.5c-0.1,0.1-0.3,0.2-0.5,0.2
			c-0.2,0-0.4-0.1-0.5-0.2c-0.1-0.1-0.2-0.3-0.2-0.5c-0.1-0.3-0.2-0.6-0.4-0.7c-0.2-0.1-0.6-0.2-1-0.2h-3.4c-0.6,0-1,0.1-1.2,0.3
			c-0.2,0.2-0.3,0.6-0.3,1.2c0,0.6,0.1,1,0.3,1.2c0.2,0.2,0.6,0.3,1.2,0.3h3.5c1,0,1.8,0.3,2.3,0.8s0.8,1.3,0.8,2.3
			s-0.3,1.8-0.8,2.3s-1.3,0.8-2.3,0.8H192.7z"/>
		<path class="st3" d="M207.3,161.6c-1.4,0-2.4-0.3-3-1c-0.6-0.6-1-1.6-1-3v-5.2h-1.2c-0.5,0-0.7-0.2-0.7-0.7c0-0.5,0.2-0.7,0.7-0.7
			h1.2v-2.1c0-0.5,0.2-0.7,0.7-0.7c0.5,0,0.7,0.2,0.7,0.7v2.1h2.7c0.5,0,0.7,0.2,0.7,0.7c0,0.5-0.2,0.7-0.7,0.7h-2.7v5.2
			c0,1,0.2,1.7,0.6,2s1.1,0.6,2,0.6c0.2,0,0.4,0.1,0.5,0.2c0.1,0.1,0.2,0.3,0.2,0.5C208,161.4,207.8,161.6,207.3,161.6z"/>
		<path class="st3" d="M216.7,164.7c-0.3,0-0.5-0.1-0.6-0.3c-0.1-0.2-0.1-0.4-0.1-0.6l4.5-17.4c0.1-0.4,0.3-0.5,0.7-0.5
			c0.3,0,0.5,0.1,0.6,0.2c0.1,0.2,0.1,0.4,0.1,0.6l-4.5,17.4C217.3,164.6,217.1,164.7,216.7,164.7z"/>
		<path class="st3" d="M160.8,187.9c-1.2,0-2-0.3-2.6-0.8c-0.6-0.6-0.8-1.4-0.8-2.6c0-1.2,0.3-2,0.8-2.6c0.6-0.6,1.4-0.8,2.6-0.8
			h4.9c0-0.9-0.2-1.5-0.6-1.9c-0.4-0.4-1.1-0.5-2-0.5h-1.3c-0.9,0-1.5,0.1-1.9,0.2c-0.4,0.2-0.7,0.4-0.8,0.8
			c-0.1,0.2-0.2,0.4-0.3,0.5s-0.3,0.1-0.5,0.1c-0.2,0-0.4-0.1-0.5-0.2c-0.1-0.1-0.2-0.3-0.1-0.5c0.1-0.8,0.5-1.4,1.2-1.8
			s1.6-0.6,2.9-0.6h1.3c1.4,0,2.4,0.3,3.1,1c0.7,0.7,1,1.7,1,3.1v5.8c0,0.5-0.2,0.7-0.7,0.7c-0.5,0-0.7-0.2-0.7-0.7v-0.9
			c-0.7,1.1-1.9,1.6-3.6,1.6H160.8z M160.8,186.5h1.2c0.7,0,1.2-0.1,1.8-0.2c0.5-0.1,0.9-0.4,1.3-0.7c0.3-0.3,0.5-0.8,0.6-1.3v-1.9
			h-4.9c-0.8,0-1.3,0.1-1.6,0.4c-0.3,0.3-0.4,0.8-0.4,1.6c0,0.8,0.1,1.3,0.4,1.6S160,186.5,160.8,186.5z"/>
		<path class="st3" d="M174.7,187.9c-1.4,0-2.4-0.3-3.1-1c-0.7-0.7-1-1.7-1-3.1v-2.5c0-1.4,0.3-2.4,1-3.1c0.7-0.7,1.7-1,3.1-1h1.8
			c1.1,0,1.9,0.2,2.5,0.5c0.6,0.4,0.9,0.9,1.1,1.7c0,0.2,0,0.4-0.1,0.5c-0.1,0.1-0.3,0.2-0.6,0.2c-0.2,0-0.4-0.1-0.5-0.2
			c-0.1-0.1-0.2-0.3-0.3-0.5c-0.1-0.4-0.3-0.6-0.6-0.7s-0.8-0.2-1.5-0.2h-1.8c-1,0-1.7,0.2-2.1,0.6c-0.4,0.4-0.6,1.1-0.6,2.1v2.5
			c0,1,0.2,1.7,0.6,2.1c0.4,0.4,1.1,0.6,2.1,0.6h1.8c0.7,0,1.2-0.1,1.5-0.2c0.3-0.1,0.5-0.4,0.6-0.7c0.1-0.2,0.2-0.4,0.3-0.5
			s0.3-0.2,0.5-0.2c0.2,0,0.4,0.1,0.5,0.2c0.1,0.1,0.2,0.3,0.1,0.5c-0.1,0.8-0.5,1.3-1.1,1.7c-0.6,0.4-1.4,0.6-2.5,0.6H174.7z"/>
		<path class="st3" d="M187.5,187.9c-1.4,0-2.4-0.3-3.1-1c-0.7-0.7-1-1.7-1-3.1v-2.5c0-1.4,0.3-2.4,1-3.1c0.7-0.7,1.7-1,3.1-1h1.8
			c1.1,0,1.9,0.2,2.5,0.5c0.6,0.4,0.9,0.9,1.1,1.7c0,0.2,0,0.4-0.1,0.5c-0.1,0.1-0.3,0.2-0.6,0.2c-0.2,0-0.4-0.1-0.5-0.2
			c-0.1-0.1-0.2-0.3-0.3-0.5c-0.1-0.4-0.3-0.6-0.6-0.7s-0.8-0.2-1.5-0.2h-1.8c-1,0-1.7,0.2-2.1,0.6c-0.4,0.4-0.6,1.1-0.6,2.1v2.5
			c0,1,0.2,1.7,0.6,2.1c0.4,0.4,1.1,0.6,2.1,0.6h1.8c0.7,0,1.2-0.1,1.5-0.2c0.3-0.1,0.5-0.4,0.6-0.7c0.1-0.2,0.2-0.4,0.3-0.5
			s0.3-0.2,0.5-0.2c0.2,0,0.4,0.1,0.5,0.2c0.1,0.1,0.2,0.3,0.1,0.5c-0.1,0.8-0.5,1.3-1.1,1.7c-0.6,0.4-1.4,0.6-2.5,0.6H187.5z"/>
		<path class="st3" d="M197.5,183.1v0.7c0,1,0.2,1.7,0.6,2.1c0.4,0.4,1.1,0.6,2.1,0.6h1.8c0.9,0,1.5-0.1,1.9-0.3
			c0.4-0.2,0.6-0.6,0.7-1.1c0.1-0.2,0.1-0.4,0.2-0.5s0.3-0.2,0.5-0.2c0.2,0,0.4,0.1,0.5,0.2c0.1,0.1,0.2,0.3,0.1,0.5
			c-0.1,0.9-0.5,1.6-1.2,2s-1.6,0.7-2.8,0.7h-1.8c-1.4,0-2.4-0.3-3.1-1c-0.7-0.7-1-1.7-1-3.1v-2.5c0-1.4,0.3-2.4,1-3.1
			c0.7-0.7,1.7-1,3.1-1h1.8c1.4,0,2.4,0.3,3.1,1c0.7,0.7,1,1.7,1,3.1v1.1c0,0.5-0.2,0.7-0.7,0.7H197.5z M200.2,178.7
			c-1,0-1.7,0.2-2.1,0.6c-0.4,0.4-0.6,1.1-0.6,2.1v0.4h7.2v-0.4c0-1-0.2-1.7-0.6-2.1s-1.1-0.6-2.1-0.6H200.2z"/>
		<path class="st3" d="M213,187.9c-1.1,0-1.8-0.3-2.3-0.8s-0.8-1.3-0.8-2.3v-11.5c0-0.5,0.2-0.7,0.7-0.7c0.5,0,0.7,0.2,0.7,0.7v11.5
			c0,0.7,0.1,1.1,0.4,1.4c0.2,0.2,0.7,0.4,1.4,0.4c0.5,0,0.7,0.2,0.7,0.7C213.7,187.7,213.5,187.9,213,187.9z"/>
	</g>
</g>
<g>
	<g>
		<path class="st3" d="M305.3,177.3c-0.5,0-0.7-0.2-0.7-0.7v-13.9c0-0.5,0.2-0.7,0.7-0.7s0.7,0.2,0.7,0.7v5.4
			c0.3-0.5,0.8-0.8,1.4-1.1c0.6-0.2,1.3-0.4,2.2-0.4h0.8c1.4,0,2.4,0.3,3.1,1c0.7,0.7,1,1.7,1,3.1v2.5c0,1.4-0.3,2.4-1,3.1
			c-0.7,0.7-1.7,1-3.1,1h-0.8c-0.9,0-1.6-0.1-2.2-0.4c-0.6-0.2-1.1-0.6-1.4-1.1v0.7C306,177.1,305.8,177.3,305.3,177.3z
			 M309.6,175.9h0.8c1,0,1.7-0.2,2.1-0.6c0.4-0.4,0.6-1.1,0.6-2.1v-2.5c0-1-0.2-1.7-0.6-2.1s-1.1-0.6-2.1-0.6h-0.8
			c-1.1,0-1.9,0.2-2.6,0.5s-1,0.8-1,1.5v4c0,0.6,0.4,1.1,1,1.4S308.6,175.9,309.6,175.9z"/>
		<path class="st3" d="M319.1,177.3c-0.5,0-0.7-0.2-0.7-0.7v-9.2c0-0.5,0.2-0.7,0.7-0.7s0.7,0.2,0.7,0.7v1.4c0.4-0.7,1-1.2,1.7-1.6
			c0.7-0.4,1.5-0.5,2.5-0.5c0.5,0,0.7,0.2,0.7,0.7c0,0.5-0.2,0.7-0.7,0.7c-1.3,0-2.3,0.3-3,0.8c-0.7,0.5-1.1,1.3-1.1,2.3v5.4
			C319.8,177.1,319.6,177.3,319.1,177.3z"/>
		<path class="st3" d="M330.2,177.3c-1.2,0-2-0.3-2.6-0.8c-0.6-0.6-0.8-1.4-0.8-2.6c0-1.2,0.3-2,0.8-2.6c0.6-0.6,1.4-0.8,2.6-0.8
			h4.9c0-0.9-0.2-1.5-0.6-1.9c-0.4-0.4-1.1-0.5-2-0.5h-1.3c-0.9,0-1.5,0.1-1.9,0.2c-0.4,0.2-0.7,0.4-0.8,0.8
			c-0.1,0.2-0.2,0.4-0.3,0.5s-0.3,0.1-0.5,0.1c-0.2,0-0.4-0.1-0.5-0.2c-0.1-0.1-0.2-0.3-0.1-0.5c0.1-0.8,0.5-1.4,1.2-1.8
			c0.7-0.4,1.6-0.6,2.9-0.6h1.3c1.4,0,2.4,0.3,3.1,1c0.7,0.7,1,1.7,1,3.1v5.8c0,0.5-0.2,0.7-0.7,0.7c-0.5,0-0.7-0.2-0.7-0.7v-0.9
			c-0.7,1.1-1.9,1.6-3.6,1.6H330.2z M330.2,175.9h1.2c0.7,0,1.2-0.1,1.8-0.2c0.5-0.1,0.9-0.4,1.3-0.7c0.3-0.3,0.5-0.8,0.6-1.3v-1.9
			h-4.9c-0.8,0-1.3,0.1-1.6,0.4c-0.3,0.3-0.4,0.8-0.4,1.6c0,0.8,0.1,1.3,0.4,1.6C328.9,175.8,329.4,175.9,330.2,175.9z"/>
		<path class="st3" d="M341.2,177.3c-0.5,0-0.7-0.2-0.7-0.7v-13.9c0-0.5,0.2-0.7,0.7-0.7s0.7,0.2,0.7,0.7v8.8l5.4-4.7
			c0.3-0.3,0.7-0.3,1,0.1c0.3,0.3,0.3,0.7-0.1,1l-4,3.5l4.2,4.8c0.3,0.4,0.3,0.7-0.1,1s-0.7,0.3-1-0.1l-4.2-4.8l-1.3,1.1v3.3
			C341.9,177.1,341.6,177.3,341.2,177.3z"/>
		<path class="st3" d="M352.2,172.6v0.7c0,1,0.2,1.7,0.6,2.1c0.4,0.4,1.1,0.6,2.1,0.6h1.8c0.9,0,1.5-0.1,1.9-0.3
			c0.4-0.2,0.6-0.6,0.7-1.1c0.1-0.2,0.1-0.4,0.2-0.5s0.3-0.2,0.5-0.2c0.2,0,0.4,0.1,0.5,0.2c0.1,0.1,0.2,0.3,0.1,0.5
			c-0.1,0.9-0.5,1.6-1.2,2s-1.6,0.7-2.8,0.7h-1.8c-1.4,0-2.4-0.3-3.1-1c-0.7-0.7-1-1.7-1-3.1v-2.5c0-1.4,0.3-2.4,1-3.1
			c0.7-0.7,1.7-1,3.1-1h1.8c1.4,0,2.4,0.3,3.1,1c0.7,0.7,1,1.7,1,3.1v1.1c0,0.5-0.2,0.7-0.7,0.7H352.2z M354.9,168.1
			c-1,0-1.7,0.2-2.1,0.6c-0.4,0.4-0.6,1.1-0.6,2.1v0.4h7.2v-0.4c0-1-0.2-1.7-0.6-2.1s-1.1-0.6-2.1-0.6H354.9z"/>
	</g>
</g>
<g>
	<g>
		<path class="st3" d="M103.1,54.7c-0.9,0-1.6-0.2-2.1-0.6c-0.5-0.4-0.8-1-0.9-1.7c0-0.2,0-0.4,0.1-0.5c0.1-0.1,0.3-0.2,0.5-0.2
			s0.4,0.1,0.5,0.2c0.1,0.1,0.2,0.3,0.2,0.5c0.1,0.4,0.2,0.6,0.5,0.8s0.6,0.2,1.1,0.2h3.6c0.6,0,1.1-0.1,1.3-0.4
			c0.2-0.2,0.4-0.7,0.4-1.3s-0.1-1.1-0.4-1.3c-0.2-0.2-0.7-0.4-1.3-0.4h-3.5c-1,0-1.7-0.2-2.2-0.7c-0.5-0.5-0.7-1.2-0.7-2.2
			c0-1,0.2-1.7,0.7-2.2c0.5-0.5,1.2-0.7,2.2-0.7h3.4c1.7,0,2.6,0.7,2.8,2.2c0,0.2,0,0.4-0.1,0.5c-0.1,0.1-0.3,0.2-0.5,0.2
			c-0.2,0-0.4-0.1-0.5-0.2c-0.1-0.1-0.2-0.3-0.2-0.5c-0.1-0.3-0.2-0.6-0.4-0.7c-0.2-0.1-0.6-0.2-1-0.2h-3.4c-0.6,0-1,0.1-1.2,0.3
			c-0.2,0.2-0.3,0.6-0.3,1.2c0,0.6,0.1,1,0.3,1.2c0.2,0.2,0.6,0.3,1.2,0.3h3.5c1,0,1.8,0.3,2.3,0.8s0.8,1.3,0.8,2.3
			s-0.3,1.8-0.8,2.3s-1.3,0.8-2.3,0.8H103.1z"/>
		<path class="st3" d="M117,54.7c-1.4,0-2.4-0.3-3.1-1c-0.7-0.7-1-1.7-1-3.1v-2.5c0-1.4,0.3-2.4,1-3.1c0.7-0.7,1.7-1,3.1-1h1.8
			c1.1,0,1.9,0.2,2.5,0.5c0.6,0.4,0.9,0.9,1.1,1.7c0,0.2,0,0.4-0.1,0.5c-0.1,0.1-0.3,0.2-0.6,0.2c-0.2,0-0.4-0.1-0.5-0.2
			c-0.1-0.1-0.2-0.3-0.3-0.5c-0.1-0.4-0.3-0.6-0.6-0.7s-0.8-0.2-1.5-0.2H117c-1,0-1.7,0.2-2.1,0.6c-0.4,0.4-0.6,1.1-0.6,2.1v2.5
			c0,1,0.2,1.7,0.6,2.1c0.4,0.4,1.1,0.6,2.1,0.6h1.8c0.7,0,1.2-0.1,1.5-0.2c0.3-0.1,0.5-0.4,0.6-0.7c0.1-0.2,0.2-0.4,0.3-0.5
			s0.3-0.2,0.5-0.2c0.2,0,0.4,0.1,0.5,0.2c0.1,0.1,0.2,0.3,0.1,0.5c-0.1,0.8-0.5,1.3-1.1,1.7c-0.6,0.4-1.4,0.6-2.5,0.6H117z"/>
		<path class="st3" d="M126.8,54.7c-0.5,0-0.7-0.2-0.7-0.7v-9.2c0-0.5,0.2-0.7,0.7-0.7c0.5,0,0.7,0.2,0.7,0.7v1.4
			c0.4-0.7,1-1.2,1.7-1.6s1.5-0.5,2.5-0.5c0.5,0,0.7,0.2,0.7,0.7c0,0.5-0.2,0.7-0.7,0.7c-1.3,0-2.3,0.3-3,0.8
			c-0.7,0.5-1.1,1.3-1.1,2.3V54C127.5,54.5,127.2,54.7,126.8,54.7z"/>
		<path class="st3" d="M138.4,54.7c-1.4,0-2.4-0.3-3.1-1c-0.7-0.7-1-1.7-1-3.1v-2.5c0-1.4,0.3-2.4,1-3.1c0.7-0.7,1.7-1,3.1-1h1.8
			c1.4,0,2.4,0.3,3.1,1c0.7,0.7,1,1.7,1,3.1v2.5c0,1.4-0.3,2.4-1,3.1c-0.7,0.7-1.7,1-3.1,1H138.4z M135.7,50.7c0,1,0.2,1.7,0.6,2.1
			c0.4,0.4,1.1,0.6,2.1,0.6h1.8c1,0,1.7-0.2,2.1-0.6c0.4-0.4,0.6-1.1,0.6-2.1v-2.5c0-1-0.2-1.7-0.6-2.1s-1.1-0.6-2.1-0.6h-1.8
			c-0.7,0-1.2,0.1-1.6,0.2c-0.4,0.2-0.7,0.4-0.8,0.8c-0.2,0.4-0.3,0.9-0.3,1.6V50.7z"/>
		<path class="st3" d="M151.2,54.7c-1.1,0-1.8-0.3-2.3-0.8c-0.5-0.5-0.8-1.3-0.8-2.3V40.2c0-0.5,0.2-0.7,0.7-0.7s0.7,0.2,0.7,0.7
			v11.5c0,0.7,0.1,1.1,0.4,1.4c0.2,0.2,0.7,0.4,1.4,0.4c0.5,0,0.7,0.2,0.7,0.7C151.9,54.5,151.7,54.7,151.2,54.7z"/>
		<path class="st3" d="M158,54.7c-1.1,0-1.8-0.3-2.3-0.8c-0.5-0.5-0.8-1.3-0.8-2.3V40.2c0-0.5,0.2-0.7,0.7-0.7s0.7,0.2,0.7,0.7v11.5
			c0,0.7,0.1,1.1,0.4,1.4c0.2,0.2,0.7,0.4,1.4,0.4c0.5,0,0.7,0.2,0.7,0.7C158.7,54.5,158.5,54.7,158,54.7z"/>
		<path class="st3" d="M172,54.7c-1.4,0-2.4-0.3-3-1c-0.6-0.6-1-1.6-1-3v-5.2h-1.2c-0.5,0-0.7-0.2-0.7-0.7c0-0.5,0.2-0.7,0.7-0.7
			h1.2V42c0-0.5,0.2-0.7,0.7-0.7s0.7,0.2,0.7,0.7v2.1h2.7c0.5,0,0.7,0.2,0.7,0.7c0,0.5-0.2,0.7-0.7,0.7h-2.7v5.2c0,1,0.2,1.7,0.6,2
			s1.1,0.6,2,0.6c0.2,0,0.4,0.1,0.5,0.2s0.2,0.3,0.2,0.5C172.7,54.5,172.4,54.7,172,54.7z"/>
		<path class="st3" d="M179.6,54.7c-1.4,0-2.4-0.3-3.1-1c-0.7-0.7-1-1.7-1-3.1v-2.5c0-1.4,0.3-2.4,1-3.1c0.7-0.7,1.7-1,3.1-1h1.8
			c1.4,0,2.4,0.3,3.1,1c0.7,0.7,1,1.7,1,3.1v2.5c0,1.4-0.3,2.4-1,3.1c-0.7,0.7-1.7,1-3.1,1H179.6z M176.9,50.7c0,1,0.2,1.7,0.6,2.1
			c0.4,0.4,1.1,0.6,2.1,0.6h1.8c1,0,1.7-0.2,2.1-0.6c0.4-0.4,0.6-1.1,0.6-2.1v-2.5c0-1-0.2-1.7-0.6-2.1s-1.1-0.6-2.1-0.6h-1.8
			c-0.7,0-1.2,0.1-1.6,0.2s-0.7,0.4-0.8,0.8c-0.2,0.4-0.3,0.9-0.3,1.6V50.7z"/>
		<path class="st3" d="M198.4,54.7c-1.2,0-2-0.3-2.6-0.8c-0.6-0.6-0.8-1.4-0.8-2.6c0-1.2,0.3-2,0.8-2.6c0.6-0.6,1.4-0.8,2.6-0.8h4.9
			c0-0.9-0.2-1.5-0.6-1.9c-0.4-0.4-1.1-0.5-2-0.5h-1.3c-0.9,0-1.5,0.1-1.9,0.2c-0.4,0.2-0.7,0.4-0.8,0.8c-0.1,0.2-0.2,0.4-0.3,0.5
			s-0.3,0.1-0.5,0.1c-0.2,0-0.4-0.1-0.5-0.2c-0.1-0.1-0.2-0.3-0.1-0.5c0.1-0.8,0.5-1.4,1.2-1.8c0.7-0.4,1.6-0.6,2.9-0.6h1.3
			c1.4,0,2.4,0.3,3.1,1c0.7,0.7,1,1.7,1,3.1V54c0,0.5-0.2,0.7-0.7,0.7c-0.5,0-0.7-0.2-0.7-0.7v-0.9c-0.7,1.1-1.9,1.6-3.6,1.6H198.4z
			 M198.4,53.3h1.2c0.7,0,1.2-0.1,1.8-0.2c0.5-0.1,0.9-0.4,1.3-0.7c0.3-0.3,0.5-0.8,0.6-1.3v-1.9h-4.9c-0.8,0-1.3,0.1-1.6,0.4
			c-0.3,0.3-0.4,0.8-0.4,1.6c0,0.8,0.1,1.3,0.4,1.6C197.1,53.2,197.6,53.3,198.4,53.3z"/>
		<path class="st3" d="M212.4,54.7c-1.4,0-2.4-0.3-3.1-1c-0.7-0.7-1-1.7-1-3.1v-2.5c0-1.4,0.3-2.4,1-3.1c0.7-0.7,1.7-1,3.1-1h4.5v-4
			c0-0.5,0.2-0.7,0.7-0.7c0.5,0,0.7,0.2,0.7,0.7V54c0,0.5-0.2,0.7-0.7,0.7c-0.5,0-0.7-0.2-0.7-0.7v-0.7c-0.3,0.5-0.8,0.8-1.4,1
			c-0.6,0.2-1.3,0.3-2.3,0.3H212.4z M212.4,53.3h0.8c1.1,0,2-0.2,2.6-0.5c0.7-0.3,1-0.8,1-1.5v-5.9h-4.5c-1,0-1.7,0.2-2.1,0.6
			c-0.4,0.4-0.6,1.1-0.6,2.1v2.5c0,1,0.2,1.7,0.6,2.1C210.7,53.2,211.4,53.3,212.4,53.3z"/>
		<path class="st3" d="M220.6,59.1c-0.2,0-0.4-0.1-0.5-0.2c-0.1-0.1-0.2-0.3-0.2-0.5c0-0.2,0.1-0.4,0.2-0.5c0.1-0.1,0.3-0.2,0.5-0.2
			c0.7,0,1.1-0.1,1.4-0.4c0.2-0.2,0.4-0.7,0.4-1.4V44.8c0-0.5,0.2-0.7,0.7-0.7s0.7,0.2,0.7,0.7V56c0,1.1-0.3,1.8-0.8,2.3
			C222.4,58.9,221.6,59.1,220.6,59.1z M222.7,42.2c-0.6,0-0.9-0.3-0.9-0.9v-0.5c0-0.6,0.3-0.8,0.9-0.8h0.5c0.5,0,0.8,0.3,0.8,0.8
			v0.5c0,0.6-0.3,0.9-0.8,0.9H222.7z"/>
		<path class="st3" d="M236.7,44.1c0.5,0,0.7,0.2,0.7,0.7V54c0,0.5-0.2,0.7-0.7,0.7c-0.5,0-0.7-0.2-0.7-0.7v-0.8
			c-0.7,1-1.9,1.5-3.6,1.5h-0.6c-1.4,0-2.4-0.3-3.1-1c-0.7-0.7-1-1.7-1-3.1v-5.8c0-0.5,0.2-0.7,0.7-0.7s0.7,0.2,0.7,0.7v5.8
			c0,1,0.2,1.7,0.6,2.1c0.4,0.4,1.1,0.6,2.1,0.6h0.6c1,0,1.9-0.2,2.5-0.5c0.7-0.3,1-0.8,1.1-1.4v-6.6
			C236,44.4,236.3,44.1,236.7,44.1z"/>
		<path class="st3" d="M244,54.7c-0.9,0-1.6-0.2-2.1-0.6c-0.5-0.4-0.8-1-0.9-1.7c0-0.2,0-0.4,0.1-0.5c0.1-0.1,0.3-0.2,0.5-0.2
			s0.4,0.1,0.5,0.2c0.1,0.1,0.2,0.3,0.2,0.5c0.1,0.4,0.2,0.6,0.5,0.8s0.6,0.2,1.1,0.2h3.6c0.6,0,1.1-0.1,1.3-0.4
			c0.2-0.2,0.4-0.7,0.4-1.3s-0.1-1.1-0.4-1.3c-0.2-0.2-0.7-0.4-1.3-0.4h-3.5c-1,0-1.7-0.2-2.2-0.7c-0.5-0.5-0.7-1.2-0.7-2.2
			c0-1,0.2-1.7,0.7-2.2s1.2-0.7,2.2-0.7h3.4c1.7,0,2.6,0.7,2.8,2.2c0,0.2,0,0.4-0.1,0.5c-0.1,0.1-0.3,0.2-0.5,0.2
			c-0.2,0-0.4-0.1-0.5-0.2c-0.1-0.1-0.2-0.3-0.2-0.5c-0.1-0.3-0.2-0.6-0.4-0.7s-0.6-0.2-1-0.2h-3.4c-0.6,0-1,0.1-1.2,0.3
			c-0.2,0.2-0.3,0.6-0.3,1.2c0,0.6,0.1,1,0.3,1.2c0.2,0.2,0.6,0.3,1.2,0.3h3.5c1,0,1.8,0.3,2.3,0.8s0.8,1.3,0.8,2.3
			s-0.3,1.8-0.8,2.3s-1.3,0.8-2.3,0.8H244z"/>
		<path class="st3" d="M258.6,54.7c-1.4,0-2.4-0.3-3-1c-0.6-0.6-1-1.6-1-3v-5.2h-1.2c-0.5,0-0.7-0.2-0.7-0.7c0-0.5,0.2-0.7,0.7-0.7
			h1.2V42c0-0.5,0.2-0.7,0.7-0.7s0.7,0.2,0.7,0.7v2.1h2.7c0.5,0,0.7,0.2,0.7,0.7c0,0.5-0.2,0.7-0.7,0.7H256v5.2c0,1,0.2,1.7,0.6,2
			s1.1,0.6,2,0.6c0.2,0,0.4,0.1,0.5,0.2s0.2,0.3,0.2,0.5C259.4,54.5,259.1,54.7,258.6,54.7z"/>
		<path class="st3" d="M272.2,54.7c-1.4,0-2.4-0.3-3.1-1c-0.7-0.7-1-1.7-1-3.1v-2.5c0-1.4,0.3-2.4,1-3.1c0.7-0.7,1.7-1,3.1-1h1.8
			c1.1,0,1.9,0.2,2.5,0.5s0.9,0.9,1.1,1.7c0,0.2,0,0.4-0.1,0.5c-0.1,0.1-0.3,0.2-0.6,0.2c-0.2,0-0.4-0.1-0.5-0.2
			c-0.1-0.1-0.2-0.3-0.3-0.5c-0.1-0.4-0.3-0.6-0.6-0.7s-0.8-0.2-1.5-0.2h-1.8c-1,0-1.7,0.2-2.1,0.6c-0.4,0.4-0.6,1.1-0.6,2.1v2.5
			c0,1,0.2,1.7,0.6,2.1c0.4,0.4,1.1,0.6,2.1,0.6h1.8c0.7,0,1.2-0.1,1.5-0.2c0.3-0.1,0.5-0.4,0.6-0.7c0.1-0.2,0.2-0.4,0.3-0.5
			s0.3-0.2,0.5-0.2c0.2,0,0.4,0.1,0.5,0.2c0.1,0.1,0.2,0.3,0.1,0.5c-0.1,0.8-0.5,1.3-1.1,1.7s-1.4,0.6-2.5,0.6H272.2z"/>
		<path class="st3" d="M281.9,54.7c-0.5,0-0.7-0.2-0.7-0.7v-9.2c0-0.5,0.2-0.7,0.7-0.7s0.7,0.2,0.7,0.7v1.4c0.4-0.7,1-1.2,1.7-1.6
			c0.7-0.4,1.5-0.5,2.5-0.5c0.5,0,0.7,0.2,0.7,0.7c0,0.5-0.2,0.7-0.7,0.7c-1.3,0-2.3,0.3-3,0.8c-0.7,0.5-1.1,1.3-1.1,2.3V54
			C282.6,54.5,282.4,54.7,281.9,54.7z"/>
		<path class="st3" d="M298.6,44.1c0.5,0,0.7,0.2,0.7,0.7V54c0,0.5-0.2,0.7-0.7,0.7c-0.5,0-0.7-0.2-0.7-0.7v-0.8
			c-0.7,1-1.9,1.5-3.6,1.5h-0.6c-1.4,0-2.4-0.3-3.1-1c-0.7-0.7-1-1.7-1-3.1v-5.8c0-0.5,0.2-0.7,0.7-0.7s0.7,0.2,0.7,0.7v5.8
			c0,1,0.2,1.7,0.6,2.1c0.4,0.4,1.1,0.6,2.1,0.6h0.6c1,0,1.9-0.2,2.5-0.5c0.7-0.3,1-0.8,1.1-1.4v-6.6
			C298,44.4,298.2,44.1,298.6,44.1z"/>
		<path class="st3" d="M304,42.2c-0.6,0-0.9-0.3-0.9-0.9v-0.5c0-0.6,0.3-0.8,0.9-0.8h0.5c0.5,0,0.8,0.3,0.8,0.8v0.5
			c0,0.6-0.3,0.9-0.8,0.9H304z M304.3,54.7c-0.5,0-0.7-0.2-0.7-0.7v-9.2c0-0.5,0.2-0.7,0.7-0.7s0.7,0.2,0.7,0.7V54
			C305,54.5,304.7,54.7,304.3,54.7z"/>
		<path class="st3" d="M311.6,54.7c-0.9,0-1.6-0.2-2.1-0.6c-0.5-0.4-0.8-1-0.9-1.7c0-0.2,0-0.4,0.1-0.5c0.1-0.1,0.3-0.2,0.5-0.2
			s0.4,0.1,0.5,0.2c0.1,0.1,0.2,0.3,0.2,0.5c0.1,0.4,0.2,0.6,0.5,0.8s0.6,0.2,1.1,0.2h3.6c0.6,0,1.1-0.1,1.3-0.4
			c0.2-0.2,0.4-0.7,0.4-1.3s-0.1-1.1-0.4-1.3c-0.2-0.2-0.7-0.4-1.3-0.4h-3.5c-1,0-1.7-0.2-2.2-0.7c-0.5-0.5-0.7-1.2-0.7-2.2
			c0-1,0.2-1.7,0.7-2.2s1.2-0.7,2.2-0.7h3.4c1.7,0,2.6,0.7,2.8,2.2c0,0.2,0,0.4-0.1,0.5c-0.1,0.1-0.3,0.2-0.5,0.2
			c-0.2,0-0.4-0.1-0.5-0.2c-0.1-0.1-0.2-0.3-0.2-0.5c-0.1-0.3-0.2-0.6-0.4-0.7s-0.6-0.2-1-0.2h-3.4c-0.6,0-1,0.1-1.2,0.3
			c-0.2,0.2-0.3,0.6-0.3,1.2c0,0.6,0.1,1,0.3,1.2c0.2,0.2,0.6,0.3,1.2,0.3h3.5c1,0,1.8,0.3,2.3,0.8s0.8,1.3,0.8,2.3
			s-0.3,1.8-0.8,2.3s-1.3,0.8-2.3,0.8H311.6z"/>
		<path class="st3" d="M322.8,50v0.7c0,1,0.2,1.7,0.6,2.1c0.4,0.4,1.1,0.6,2.1,0.6h1.8c0.9,0,1.5-0.1,1.9-0.3
			c0.4-0.2,0.6-0.6,0.7-1.1c0.1-0.2,0.1-0.4,0.2-0.5s0.3-0.2,0.5-0.2c0.2,0,0.4,0.1,0.5,0.2c0.1,0.1,0.2,0.3,0.1,0.5
			c-0.1,0.9-0.5,1.6-1.2,2s-1.6,0.7-2.8,0.7h-1.8c-1.4,0-2.4-0.3-3.1-1c-0.7-0.7-1-1.7-1-3.1v-2.5c0-1.4,0.3-2.4,1-3.1
			c0.7-0.7,1.7-1,3.1-1h1.8c1.4,0,2.4,0.3,3.1,1c0.7,0.7,1,1.7,1,3.1v1.1c0,0.5-0.2,0.7-0.7,0.7H322.8z M325.5,45.5
			c-1,0-1.7,0.2-2.1,0.6c-0.4,0.4-0.6,1.1-0.6,2.1v0.4h7.2v-0.4c0-1-0.2-1.7-0.6-2.1s-1.1-0.6-2.1-0.6H325.5z"/>
		<path class="st3" d="M344.9,54.7c-1.4,0-2.4-0.3-3.1-1c-0.7-0.7-1-1.7-1-3.1v-2.5c0-1.4,0.3-2.4,1-3.1c0.7-0.7,1.7-1,3.1-1h1.8
			c1.1,0,1.9,0.2,2.5,0.5s0.9,0.9,1.1,1.7c0,0.2,0,0.4-0.1,0.5c-0.1,0.1-0.3,0.2-0.6,0.2c-0.2,0-0.4-0.1-0.5-0.2
			c-0.1-0.1-0.2-0.3-0.3-0.5c-0.1-0.4-0.3-0.6-0.6-0.7s-0.8-0.2-1.5-0.2h-1.8c-1,0-1.7,0.2-2.1,0.6c-0.4,0.4-0.6,1.1-0.6,2.1v2.5
			c0,1,0.2,1.7,0.6,2.1c0.4,0.4,1.1,0.6,2.1,0.6h1.8c0.7,0,1.2-0.1,1.5-0.2c0.3-0.1,0.5-0.4,0.6-0.7c0.1-0.2,0.2-0.4,0.3-0.5
			s0.3-0.2,0.5-0.2c0.2,0,0.4,0.1,0.5,0.2c0.1,0.1,0.2,0.3,0.1,0.5c-0.1,0.8-0.5,1.3-1.1,1.7s-1.4,0.6-2.5,0.6H344.9z"/>
		<path class="st3" d="M357.6,54.7c-1.4,0-2.4-0.3-3.1-1c-0.7-0.7-1-1.7-1-3.1v-2.5c0-1.4,0.3-2.4,1-3.1c0.7-0.7,1.7-1,3.1-1h1.8
			c1.4,0,2.4,0.3,3.1,1c0.7,0.7,1,1.7,1,3.1v2.5c0,1.4-0.3,2.4-1,3.1c-0.7,0.7-1.7,1-3.1,1H357.6z M354.9,50.7c0,1,0.2,1.7,0.6,2.1
			c0.4,0.4,1.1,0.6,2.1,0.6h1.8c1,0,1.7-0.2,2.1-0.6c0.4-0.4,0.6-1.1,0.6-2.1v-2.5c0-1-0.2-1.7-0.6-2.1s-1.1-0.6-2.1-0.6h-1.8
			c-0.7,0-1.2,0.1-1.6,0.2s-0.7,0.4-0.8,0.8c-0.2,0.4-0.3,0.9-0.3,1.6V50.7z"/>
		<path class="st3" d="M368,54.7c-0.5,0-0.7-0.2-0.7-0.7v-9.2c0-0.5,0.2-0.7,0.7-0.7s0.7,0.2,0.7,0.7v0.8c0.7-1,1.9-1.5,3.6-1.5h0.6
			c1.4,0,2.4,0.3,3.1,1c0.7,0.7,1,1.7,1,3.1V54c0,0.5-0.2,0.7-0.7,0.7c-0.5,0-0.7-0.2-0.7-0.7v-5.8c0-1-0.2-1.7-0.6-2.1
			c-0.4-0.4-1.1-0.6-2.1-0.6h-0.6c-1,0-1.9,0.2-2.5,0.5c-0.6,0.3-1,0.8-1.1,1.4V54C368.7,54.5,368.5,54.7,368,54.7z"/>
		<path class="st3" d="M385.4,54.7c-1.4,0-2.4-0.3-3-1c-0.6-0.6-1-1.6-1-3v-5.2h-1.2c-0.5,0-0.7-0.2-0.7-0.7c0-0.5,0.2-0.7,0.7-0.7
			h1.2V42c0-0.5,0.2-0.7,0.7-0.7s0.7,0.2,0.7,0.7v2.1h2.7c0.5,0,0.7,0.2,0.7,0.7c0,0.5-0.2,0.7-0.7,0.7h-2.7v5.2c0,1,0.2,1.7,0.6,2
			s1.1,0.6,2,0.6c0.2,0,0.4,0.1,0.5,0.2s0.2,0.3,0.2,0.5C386.2,54.5,385.9,54.7,385.4,54.7z"/>
		<path class="st3" d="M390,54.7c-0.5,0-0.7-0.2-0.7-0.7v-9.2c0-0.5,0.2-0.7,0.7-0.7s0.7,0.2,0.7,0.7v1.4c0.4-0.7,1-1.2,1.7-1.6
			c0.7-0.4,1.5-0.5,2.5-0.5c0.5,0,0.7,0.2,0.7,0.7c0,0.5-0.2,0.7-0.7,0.7c-1.3,0-2.3,0.3-3,0.8c-0.7,0.5-1.1,1.3-1.1,2.3V54
			C390.7,54.5,390.5,54.7,390,54.7z"/>
		<path class="st3" d="M401.7,54.7c-1.4,0-2.4-0.3-3.1-1c-0.7-0.7-1-1.7-1-3.1v-2.5c0-1.4,0.3-2.4,1-3.1c0.7-0.7,1.7-1,3.1-1h1.8
			c1.4,0,2.4,0.3,3.1,1c0.7,0.7,1,1.7,1,3.1v2.5c0,1.4-0.3,2.4-1,3.1c-0.7,0.7-1.7,1-3.1,1H401.7z M399,50.7c0,1,0.2,1.7,0.6,2.1
			c0.4,0.4,1.1,0.6,2.1,0.6h1.8c1,0,1.7-0.2,2.1-0.6c0.4-0.4,0.6-1.1,0.6-2.1v-2.5c0-1-0.2-1.7-0.6-2.1s-1.1-0.6-2.1-0.6h-1.8
			c-0.7,0-1.2,0.1-1.6,0.2s-0.7,0.4-0.8,0.8c-0.2,0.4-0.3,0.9-0.3,1.6V50.7z"/>
		<path class="st3" d="M414.5,54.7c-1.1,0-1.8-0.3-2.3-0.8c-0.5-0.5-0.8-1.3-0.8-2.3V40.2c0-0.5,0.2-0.7,0.7-0.7s0.7,0.2,0.7,0.7
			v11.5c0,0.7,0.1,1.1,0.4,1.4c0.2,0.2,0.7,0.4,1.4,0.4c0.5,0,0.7,0.2,0.7,0.7C415.2,54.5,415,54.7,414.5,54.7z"/>
	</g>
</g>
<polygon class="st3" points="194.2,309.6 170,323.5 194.2,337.4 "/>
<polygon class="st3" points="321.2,337.4 345.3,323.5 321.2,309.6 "/>
<line class="st2" x1="256.5" y1="103" x2="256.5" y2="125.3"/>
<polygon class="st3" points="251.6,189.4 256.5,198 261.5,189.4 "/>
<polygon class="st3" points="261.5,144.1 256.6,135.5 251.6,144.1 "/>
</svg>
