# Blender v2.92.0 OBJ File: ''
# www.blender.org
o truss_Cube.002
v -0.527297 0.226493 0.000000
v -0.527297 0.474669 0.000000
v -0.527297 0.474669 -0.535674
v -0.527297 0.226493 -0.535674
v -0.380988 0.474669 -0.487906
v -0.380988 0.474669 -0.801226
v -0.527297 0.474669 -0.695822
v 3.433142 0.226493 -0.487906
v 3.433142 0.474669 -0.487906
v 3.471307 0.474669 0.000000
v 3.471307 0.226493 0.000000
v 3.138194 0.226493 -0.487906
v 3.138194 0.226493 0.000000
v -0.380988 0.474669 0.000000
v 3.138194 0.474669 -0.487906
v 2.420370 0.474669 -0.487906
v 2.420370 0.474669 0.000000
v 3.138194 0.474669 0.000000
v 0.390815 0.474669 -0.487906
v 0.390815 0.474669 0.000000
v -0.380988 0.226493 -0.487906
v 0.390815 0.226493 -0.487906
v 0.390815 0.226493 0.000000
v -0.380989 0.226493 0.000000
v 2.420370 0.226493 -0.487906
v 2.420370 0.226493 -0.801226
v 2.420370 0.474669 -0.801226
v 2.420370 0.226493 0.000000
v 3.360760 0.226493 -0.683019
v 3.360760 0.474669 -0.683019
v 3.138194 0.226493 -0.801226
v 3.138194 0.474669 -0.801226
v 0.390815 0.226493 -0.801226
v 0.390815 0.474669 -0.801226
v -0.527297 0.226493 -0.695822
v -0.380988 0.226493 -0.801226
v 3.138194 0.474669 0.487906
v 3.138194 0.474669 0.801226
v -0.527297 0.226493 0.535674
v -0.527297 0.474669 0.535674
v -0.527297 0.474669 0.695823
v -0.380988 0.474669 0.801226
v -0.380988 0.474669 0.487906
v 3.433142 0.226493 0.487906
v 3.433142 0.474669 0.487906
v 3.138194 0.226493 0.487906
v 2.420370 0.474669 0.487906
v 0.390815 0.474669 0.487906
v -0.380988 0.226493 0.487906
v 0.390815 0.226493 0.487906
v 2.420370 0.474669 0.801226
v 2.420370 0.226493 0.801226
v 2.420370 0.226493 0.487906
v 3.360760 0.474669 0.683019
v 3.360760 0.226493 0.683019
v 3.138194 0.226493 0.801226
v 0.390815 0.226493 0.801226
v 0.390815 0.474669 0.801226
v -0.527297 0.226493 0.695823
v -0.380988 0.226493 0.801226
vt 0.375000 0.000000
vt 0.625000 0.000000
vt 0.625000 0.250000
vt 0.375000 0.250000
vt 0.875000 0.500000
vt 0.845614 0.500000
vt 0.845614 0.500000
vt 0.875000 0.500000
vt 0.375000 0.500000
vt 0.625000 0.500000
vt 0.625000 0.750000
vt 0.375000 0.750000
vt 0.350801 0.500000
vt 0.350801 0.750000
vt 0.875000 0.750000
vt 0.845614 0.750000
vt 0.645838 0.500000
vt 0.690625 0.500000
vt 0.690624 0.750000
vt 0.645838 0.750000
vt 0.740565 0.500000
vt 0.793942 0.500000
vt 0.793942 0.750000
vt 0.740565 0.750000
vt 0.154386 0.500000
vt 0.206058 0.500000
vt 0.206058 0.750000
vt 0.154386 0.750000
vt 0.375000 0.279386
vt 0.625000 0.279386
vt 0.625000 0.331058
vt 0.375000 0.331058
vt 0.625000 0.434228
vt 0.375000 0.423937
vt 0.375000 0.423937
vt 0.625000 0.434228
vt 0.271076 0.500000
vt 0.271076 0.750000
vt 0.370946 0.497565
vt 0.628490 0.497894
vt 0.125000 0.500000
vt 0.125000 0.750000
vt 0.298790 0.500000
vt 0.298790 0.750000
vt 0.625000 0.479115
vt 0.375000 0.475847
vt 0.375000 0.475847
vt 0.625000 0.479115
vt 0.375000 0.331058
vt 0.625000 0.331058
vt 0.625000 0.384435
vt 0.375000 0.396076
vt 0.375000 0.250000
vt 0.625000 0.250000
vt 0.625000 0.279386
vt 0.375000 0.279386
vt 0.206058 0.500000
vt 0.271076 0.500000
vt 0.350801 0.500000
vt 0.125000 0.500000
vt 0.154386 0.500000
vt 0.740565 0.500000
vt 0.793942 0.500000
vt 0.375000 0.250000
vt 0.625000 0.250000
vt 0.875000 0.500000
vt 0.875000 0.500000
vt 0.845614 0.500000
vt 0.845614 0.500000
vt 0.375000 0.500000
vt 0.625000 0.500000
vt 0.350801 0.500000
vt 0.645838 0.500000
vt 0.690625 0.500000
vt 0.740565 0.500000
vt 0.793942 0.500000
vt 0.154386 0.500000
vt 0.206058 0.500000
vt 0.375000 0.279386
vt 0.375000 0.331058
vt 0.625000 0.331058
vt 0.625000 0.279386
vt 0.625000 0.434228
vt 0.625000 0.434228
vt 0.375000 0.423937
vt 0.375000 0.423937
vt 0.271076 0.500000
vt 0.628490 0.497894
vt 0.370946 0.497565
vt 0.125000 0.500000
vt 0.298790 0.500000
vt 0.375000 0.475847
vt 0.625000 0.479115
vt 0.375000 0.475847
vt 0.625000 0.479115
vt 0.375000 0.331058
vt 0.375000 0.396076
vt 0.625000 0.384435
vt 0.625000 0.331058
vt 0.375000 0.250000
vt 0.375000 0.279386
vt 0.625000 0.279386
vt 0.625000 0.250000
vt 0.271076 0.500000
vt 0.206058 0.500000
vt 0.350801 0.500000
vt 0.154386 0.500000
vt 0.125000 0.500000
vt 0.793942 0.500000
vt 0.740565 0.500000
vn -1.0000 0.0000 0.0000
vn 0.0000 1.0000 0.0000
vn 0.9970 -0.0000 -0.0780
vn 0.9970 0.0000 0.0780
vn -0.0000 -1.0000 -0.0000
vn 0.0000 0.0000 -1.0000
vn 1.0000 0.0000 0.0000
vn 0.9376 0.0000 -0.3478
vn 0.4691 0.0000 -0.8832
vn -0.5845 0.0000 -0.8114
vn 0.0000 -0.0000 1.0000
vn 0.9376 0.0000 0.3478
vn 0.4691 0.0000 0.8832
vn -0.5845 0.0000 0.8114
s 1
f 1/1/1 2/2/1 3/3/1 4/4/1
f 3/5/2 5/6/2 6/7/2 7/8/2
f 8/9/3 9/10/3 10/11/4 11/12/3
f 12/13/5 8/9/5 11/12/5 13/14/5
f 5/6/2 3/5/2 2/15/2 14/16/2
f 15/17/2 16/18/2 17/19/2 18/20/2
f 16/21/2 19/22/2 20/23/2 17/24/2
f 21/25/5 22/26/5 23/27/5 24/28/5
f 21/29/6 5/30/6 19/31/6 22/32/6
f 16/33/7 25/34/7 26/35/7 27/36/7
f 22/26/5 25/37/5 28/38/5 23/27/5
f 9/10/8 8/9/8 29/39/8 30/40/8
f 4/41/5 21/25/5 24/28/5 1/42/5
f 19/22/2 5/6/2 14/16/2 20/23/2
f 9/10/2 15/17/2 18/20/2 10/11/2
f 25/43/5 12/13/5 13/14/5 28/44/5
f 25/34/6 16/33/6 15/45/6 12/46/6
f 31/47/9 32/48/9 30/40/9 29/39/9
f 33/49/6 34/50/6 27/51/6 26/52/6
f 35/53/10 7/54/10 6/55/10 36/56/10
f 4/4/1 3/3/1 7/54/1 35/53/1
f 25/37/5 22/26/5 33/57/5 26/58/5
f 8/9/5 12/13/5 31/59/5 29/39/5
f 21/25/5 4/41/5 35/60/5 36/61/5
f 5/30/7 21/29/7 36/56/7 6/55/7
f 22/32/1 19/31/1 34/50/1 33/49/1
f 12/46/1 15/45/1 32/48/1 31/47/1
f 19/22/2 16/21/2 27/62/2 34/63/2
f 1/1/1 39/64/1 40/65/1 2/2/1
f 40/66/2 41/67/2 42/68/2 43/69/2
f 44/70/4 11/12/3 10/11/4 45/71/4
f 46/72/5 13/14/5 11/12/5 44/70/5
f 43/69/2 14/16/2 2/15/2 40/66/2
f 37/73/2 18/20/2 17/19/2 47/74/2
f 47/75/2 17/24/2 20/23/2 48/76/2
f 49/77/5 24/28/5 23/27/5 50/78/5
f 49/79/11 50/80/11 48/81/11 43/82/11
f 47/83/7 51/84/7 52/85/7 53/86/7
f 50/78/5 23/27/5 28/38/5 53/87/5
f 45/71/12 54/88/12 55/89/12 44/70/12
f 39/90/5 1/42/5 24/28/5 49/77/5
f 48/76/2 20/23/2 14/16/2 43/69/2
f 45/71/2 10/11/2 18/20/2 37/73/2
f 53/91/5 28/44/5 13/14/5 46/72/5
f 53/86/11 46/92/11 37/93/11 47/83/11
f 56/94/13 55/89/13 54/88/13 38/95/13
f 57/96/11 52/97/11 51/98/11 58/99/11
f 59/100/14 60/101/14 42/102/14 41/103/14
f 39/64/1 59/100/1 41/103/1 40/65/1
f 53/87/5 52/104/5 57/105/5 50/78/5
f 44/70/5 55/89/5 56/106/5 46/72/5
f 49/77/5 60/107/5 59/108/5 39/90/5
f 43/82/7 42/102/7 60/101/7 49/79/7
f 50/80/1 57/96/1 58/99/1 48/81/1
f 46/92/1 56/94/1 38/95/1 37/93/1
f 48/76/2 58/109/2 51/110/2 47/75/2
f 38/95/2 54/88/2 45/71/2 37/73/2
f 15/45/2 9/10/2 30/40/2 32/48/2
