# Blender v2.92.0 OBJ File: ''
# www.blender.org
o marsbarrier_black
v 0.015023 -0.210829 0.021830
v -0.015291 0.703756 0.021830
v 0.015023 -0.210829 -0.021830
v -0.015291 0.703756 -0.021830
v 0.024640 -0.210829 0.000000
v 0.024640 0.703756 0.000000
v -0.109697 0.402045 0.021830
v -0.109697 0.623663 0.021830
v -0.109697 0.623663 -0.021830
v -0.109697 0.402045 -0.021830
v 0.024640 0.140142 0.000000
v -0.015291 0.647995 0.021830
v -0.070305 0.600719 0.021830
v -0.071223 0.407950 0.021830
v -0.015291 0.136804 0.021830
v -0.015291 0.647995 -0.021830
v -0.070305 0.600719 -0.021830
v -0.071223 0.407950 -0.021830
v -0.015291 0.136804 -0.021830
vt 0.601285 0.000000
vt 0.625000 0.000000
vt 0.625000 0.250000
vt 0.601285 0.250000
vt 0.125000 0.500000
vt 0.375000 0.750000
vt 0.125000 0.750000
vt 0.375000 0.000000
vt 0.517952 0.000000
vt 0.517952 0.250000
vt 0.375000 0.250000
vt 0.625000 1.000000
vt 0.625000 0.500000
vt 0.000000 0.000000
vt 0.000000 0.000000
vt 0.189878 0.303805
vt 0.116042 0.204337
vt 0.625000 0.750000
vt 0.000000 0.000000
vt 0.189878 0.303805
vt 0.000000 0.000000
vt 0.000000 0.000000
vt 0.000000 0.000000
vt 0.433410 0.500000
vt 0.375000 0.500000
vt 0.197080 0.524545
vn -0.6469 0.7625 0.0000
vn 0.0000 -1.0000 0.0000
vn -0.9799 -0.1994 0.0000
vn -1.0000 0.0000 0.0000
vn 0.0000 1.0000 -0.0000
vn -0.0000 0.0000 1.0000
vn 0.4797 0.0000 0.8774
vn 0.6598 0.0286 0.7509
vn 1.0000 -0.0048 -0.0000
vn 0.9794 0.2020 -0.0000
vn 0.6518 -0.7584 -0.0000
vn 0.0000 0.0000 -1.0000
vn 0.6598 0.0286 -0.7509
vn 0.4797 0.0000 -0.8774
s off
f 8/1/1 2/2/1 4/3/1 9/4/1
f 3/5/2 5/6/2 1/7/2
f 1/8/3 7/9/3 10/10/3 3/11/3
f 7/9/4 8/1/4 9/4/4 10/10/4
f 2/12/5 6/13/5 4/3/5
f 15/14/6 14/15/6 7/9/6 1/8/6
f 12/16/7 15/14/7 11/17/7
f 2/12/7 12/16/7 11/17/7 6/18/7
f 8/1/6 13/19/6 12/16/6 2/12/6
f 7/9/6 14/15/6 13/19/6 8/1/6
f 1/8/8 5/6/8 11/17/8 15/14/8
f 15/14/4 12/16/4 16/20/4 19/21/4
f 13/19/9 14/15/9 18/22/9 17/23/9
f 14/15/10 15/14/10 19/21/10 18/22/10
f 12/16/11 13/19/11 17/23/11 16/20/11
f 9/4/12 4/3/12 16/20/12 17/23/12
f 10/10/12 9/4/12 17/23/12 18/22/12
f 3/11/12 10/10/12 18/22/12 19/21/12
f 3/11/13 19/21/13 11/24/13 5/25/13
f 19/21/14 16/20/14 11/24/14
f 6/13/14 11/26/14 16/20/14 4/3/14
o marsbarrier_reflect
v 0.024482 0.745987 0.000161
v -0.014030 0.745987 -0.020996
v -0.014030 0.745987 0.021319
v -0.014030 0.703693 0.021319
v -0.014030 0.703693 -0.020996
v 0.024482 0.703693 0.000161
vt 0.625000 0.335412
vt 0.625000 0.000000
vt 0.625000 0.000000
vt 0.625000 0.335412
vt 0.625000 0.500000
vt 0.789588 0.500000
vt 0.789588 0.750000
vt 0.625000 0.914588
vt 0.625000 0.750000
vt 0.625000 0.750000
vt 0.625000 0.914588
vt 0.625000 0.500000
vn -1.0000 0.0000 0.0000
vn 0.0000 1.0000 0.0000
vn 0.4815 0.0000 0.8764
vn 0.4815 0.0000 -0.8764
s off
f 24/27/15 23/28/15 22/29/15 21/30/15
f 20/31/16 21/32/16 22/33/16
f 23/34/17 25/35/17 20/36/17 22/37/17
f 25/38/18 24/27/18 21/30/18 20/31/18
