<?xml version="1.0" encoding="utf-8"?>
<!-- Generator: Adobe Illustrator 23.0.3, SVG Export Plug-In . SVG Version: 6.00 Build 0)  -->
<svg version="1.1" id="Layer_1" xmlns="http://www.w3.org/2000/svg" xmlns:xlink="http://www.w3.org/1999/xlink" x="0px" y="0px"
	 viewBox="0 0 24 24" style="enable-background:new 0 0 24 24;" xml:space="preserve">
<style type="text/css">
	.st0{fill:none;}
	.st1{fill:none;stroke:#FFFFFF;stroke-width:2.5;stroke-miterlimit:10;}
	.st2{display:none;fill:#FFFFFF;}
</style>
<path class="st0" d="M0,0h24v24H0V0z"/>
<path class="st1" d="M17.3,20.2c-1,0.5-2.1,0.6-3.3,0.6c-4.9,0-8.8-4-8.8-8.8s4-8.8,8.8-8.8c1.2,0,2.4,0.2,3.3,0.6
	c-2.9,1.6-5,4.6-5,8.2S14.4,18.6,17.3,20.2z"/>
<path class="st2" d="M22.6,12c0,4.5-2.8,8.3-6.7,9.8C12.3,20,9.9,16.3,9.9,12s2.5-8,6.1-9.8C19.8,3.7,22.6,7.5,22.6,12z"/>
<path class="st2" d="M32,12c0,6.1-5,11-11,11c-1.8,0-3.5-0.4-5-1.2C12.3,20,9.9,16.3,9.9,12s2.5-8,6.1-9.8C17.5,1.4,19.2,1,21,1
	C27,1,32,5.9,32,12z"/>
</svg>
