<?xml version="1.0" encoding="utf-8"?>
<!-- Generator: Adobe Illustrator 23.0.3, SVG Export Plug-In . SVG Version: 6.00 Build 0)  -->
<svg version="1.1" id="Layer_1" xmlns="http://www.w3.org/2000/svg" xmlns:xlink="http://www.w3.org/1999/xlink" x="0px" y="0px"
	 viewBox="0 0 24 24" style="enable-background:new 0 0 24 24;" xml:space="preserve">
<style type="text/css">
	.st0{fill:none;}
	.st1{fill:#FFFFFF;}
	.st2{fill:none;stroke:#FFFFFF;stroke-width:2.5;stroke-miterlimit:10;}
</style>
<path class="st0" d="M0,0h24v24H0V0z"/>
<path class="st1" d="M5,4.2L3.5,5.6l1.8,1.8L6.7,6L5,4.2z M1,11.6v2h3v-2H1z M19,4.2L17.2,6l1.4,1.4l1.8-1.8L19,4.2z"/>
<path class="st1" d="M18,12c-2.1,0.7-3.9,1.8-5.4,3.2c-1.9-1-4.1-1.6-6.4-1.7C6,13.3,6,13,6,12.6c0-3.3,2.7-6,6-6
	C15.1,6.6,17.7,9,18,12z"/>
<path class="st2" d="M1,18.5c3-1.7,10.2-2.3,15.3,4"/>
<path class="st2" d="M13.2,19.7c2.3-2.6,5.4-4.6,10-5.3"/>
<g>
	<path class="st1" d="M14.6,4.9c-2.3,0-3.2,0-5.1,0l2.6-4L14.6,4.9z"/>
</g>
</svg>
